<?xml version="1.0" encoding="UTF-8"?>
<svg height="600" width="800" xmlns="http://www.w3.org/2000/svg" xmlns:xlink="http://www.w3.org/1999/xlink">
    <g id="Notes" font-family="'LucidaGrande', 'Lucida Grande', sans-serif" font-size="13">
        <rect fill="white" height="600.0" width="800.0" x="0.0" y="0.0" />
        <g font-size="13">
            <text x="18.0" y="176.0">Small</text>
            <text x="18.0" y="376.0">Medium</text>
            <text x="18.0" y="576.0">Large</text>
        </g>
        <g font-size="9">
            <text x="250.0" y="30.0">Ultralight</text>
            <text x="450.0" y="30.0">Regular</text>
            <text x="650.0" y="30.0">Black</text>
            <text id="template-version" fill="#505050" text-anchor="end" x="785.0" y="575.0">Template v.3.0</text>
            <a href="https://github.com/swhitty/SwiftDraw">
                <text fill="#505050" text-anchor="end" x="785.0" y="590.0">https://github.com/swhitty/SwiftDraw</text>
            </a>
        </g>
    </g>
    <g id="Guides" stroke="rgb(39, 170, 225)" stroke-width="0.5">
        <path id="Capline-S" d="M18,76 l800,0" />
        <path id="H-reference" d="M85,145.755 L87.685,145.755 L113.369,79.287 L114.052,79.287 L114.052,76 L112.148,76 L85,145.755 Z M95.693,121.536 L130.996,121.536 L130.263,119.313 L96.474,119.313 L95.693,121.536 Z M139.15,145.755 L141.787,145.755 L114.638,76 L113.466,76 L113.466,79.287 L139.15,145.755 Z" stroke="none" />
        <path id="Baseline-S" d="M18,146 l800,0" />
        <path id="left-margin-Ultralight-S" d="M221,56 l0,110" />
        <path id="right-margin-Ultralight-S" d="M309,56 l0,110" />
        <path id="left-margin-Regular-S" d="M421,56 l0,110" />
        <path id="right-margin-Regular-S" d="M509,56 l0,110" />
        <path id="left-margin-Black-S" d="M621,56 l0,110" />
        <path id="right-margin-Black-S" d="M709,56 l0,110" />
        <path id="Capline-M" d="M18,276 l800,0" />
        <path id="Baseline-M" d="M18,346 l800,0" />
        <path id="Capline-L" d="M18,476 l800,0" />
        <path id="Baseline-L" d="M18,546 l800,0" />
    </g>
    <g id="Symbols">
        <g id="Ultralight-S">
            <path d="M262.832,76.012 C261.753,76.041 260.688,76.128 259.623,76.289 C258.048,76.446 256.473,77.237 254.738,78.024 C252.53,78.969 250.319,79.917 248.268,80.075 C244.797,81.177 243.695,82.755 242.75,84.015 C242.75,84.173 242.592,84.33 242.592,84.33 C241.329,86.853 241.172,89.376 241.644,91.899 C242.117,93.477 242.747,94.901 243.219,96.318 C244.328,99.317 245.43,102.152 245.903,105.465 C246.378,106.413 246.848,107.673 247.163,108.936 C247.95,111.459 248.744,114.298 251.109,116.506 L251.127,116.497 C251.176,116.552 251.214,116.613 251.267,116.663 L251.328,116.634 L251.27,114.93 C253.16,112.089 255.837,110.196 259.623,109.409 C261.14,109.088 262.776,108.971 264.474,109.036 C266.241,109.083 267.999,109.314 269.718,109.724 C273.977,110.827 277.287,113.037 277.448,114.93 C277.527,115.963 277.565,116.958 277.541,117.952 C277.541,118.139 277.53,118.326 277.521,118.515 L277.918,118.714 C278.156,118.576 278.362,118.386 278.518,118.159 L278.527,118.151 L278.545,118.127 C278.661,117.97 278.763,117.766 278.865,117.561 C278.924,117.453 278.976,117.311 279.029,117.185 C279.627,115.838 280.085,113.822 280.598,111.459 C280.756,110.672 280.919,110.039 281.073,109.409 C282.336,106.571 284.069,104.048 285.805,101.679 C288.643,97.742 291.323,94.11 291.008,89.852 C285.805,79.757 278.548,78.179 274.762,77.391 C274.132,77.234 273.819,77.234 273.347,77.076 C269.444,76.365 266.072,75.921 262.832,76.012 Z M277.541,117.952 C277.558,116.995 277.527,116.039 277.448,115.085 C277.29,113.034 273.977,110.826 269.561,109.724 C267.89,109.338 266.187,109.108 264.474,109.036 C262.953,108.985 261.431,109.11 259.938,109.409 C256.31,110.196 253.475,112.092 251.739,114.927 L251.888,119.101 C253.834,118.066 256.943,116.552 261.047,116.185 C261.236,116.17 261.443,116.17 261.642,116.158 C261.983,116.12 262.418,116.03 262.937,116.03 C267.624,116.03 272.469,117.588 277.162,120.837 C277.276,120.038 277.337,119.236 277.366,118.436 L277.498,118.503 C277.503,118.32 277.538,118.133 277.541,117.949 Z M262.829,76.169 C263.191,76.157 263.57,76.198 263.934,76.201 C263.264,76.195 262.596,76.21 261.931,76.248 C262.231,76.23 262.529,76.178 262.829,76.169 Z M264.281,76.213 Z M260.449,76.379 C260.227,76.405 260.003,76.417 259.781,76.449 C257.398,76.79 254.606,78.494 251.76,79.497 C252.795,79.112 253.842,78.634 254.895,78.185 C256.47,77.397 258.206,76.607 259.623,76.449 C259.898,76.408 260.175,76.411 260.449,76.379 Z M259.781,77.079 C260.253,77.079 260.886,77.079 261.359,77.237 C261.005,77.156 260.639,77.142 260.28,77.196 C260.595,77.219 260.905,77.286 261.201,77.394 C262.893,80.311 259.959,92.792 259.221,101.163 C259.607,103.818 260.058,106.463 260.571,109.096 C258.521,103.892 256.47,94.742 256.152,87.646 C255.995,84.808 256.155,82.282 256.788,80.392 C257.415,78.494 258.363,77.234 259.778,77.076 Z M268.928,77.867 C266.565,84.021 266.25,95.688 266.093,99.317 C265.935,100.892 266.093,104.363 266.25,106.886 C266.25,107.516 266.408,108.146 266.408,108.779 C266.408,108.146 266.25,107.673 266.25,107.043 C264.987,97.581 263.409,86.229 268.928,77.87 Z M278.705,78.972 C277.918,85.278 274.607,88.277 273.504,94.431 C273.189,99.32 272.556,104.996 272.399,109.884 C272.241,104.996 272.399,99.792 273.186,94.586 C273.974,89.225 275.71,83.861 278.705,78.972 Z M248.432,80.229 Z M249.044,80.804 C249.695,80.797 250.323,81.044 250.794,81.492 L250.753,81.472 C251.141,81.74 251.529,82.082 251.9,82.592 C251.305,85.415 252.643,91.436 252.016,96.213 C252.238,100.729 252.223,105.489 254.493,109.219 C251.634,104.815 251.063,99.191 250.637,93.947 C250.307,90.768 250.042,87.831 249.283,85.48 C248.863,84.59 248.499,83.802 248.163,83.082 C248.093,82.974 248.035,82.852 247.959,82.749 C247.673,82.452 247.505,82.062 247.487,81.65 C247.487,81.492 247.641,81.177 247.802,81.177 C247.959,81.02 248.271,81.014 248.429,80.856 C248.631,80.818 248.836,80.8 249.041,80.804 Z M245.115,82.592 C244.94,82.65 244.847,82.712 244.707,82.77 C245.223,82.671 245.763,82.869 246.224,83.697 C245.675,86.299 247.495,93.524 247.472,98.585 C248.385,103.975 249.076,109.814 252.057,113.504 C248.586,109.564 247.169,102.624 246.066,96.788 C245.118,92.214 244.328,88.271 242.753,87.011 C242.595,86.696 242.438,86.535 242.438,86.22 C242.438,85.748 242.438,85.115 242.753,84.485 C241.945,86.334 241.571,88.181 241.673,90.03 C241.554,88.12 241.926,86.211 242.753,84.485 C242.753,84.327 242.91,84.327 242.91,84.17 C242.945,84.123 243.001,84.068 243.038,84.021 C243.207,83.73 243.431,83.476 243.698,83.272 C243.858,83.094 243.978,82.922 244.161,82.741 C244.007,82.904 243.905,83.062 243.771,83.222 C243.849,83.169 243.922,83.114 244.016,83.07 C244.294,82.757 244.696,82.582 245.115,82.592 Z M244.016,83.07 C244.004,83.091 243.992,83.099 243.981,83.123 L244.089,83.035 L244.016,83.07 Z M287.068,86.378 L287.053,86.422 C287.164,86.407 287.272,86.372 287.383,86.378 C287.275,86.372 287.161,86.407 287.047,86.436 C284.53,94.142 281.543,101.849 278.556,109.555 C278.555,109.558 278.553,109.561 278.55,109.564 C278.297,110.92 277.868,112.142 276.975,113.035 C278.238,111.614 278.393,109.561 278.55,107.038 C278.708,104.672 278.708,102.149 279.971,99.623 C279.971,99.469 279.974,99.317 280.126,99.159 L280.128,99.154 C280.411,98.124 280.718,97.144 281.053,96.184 C282.272,92.422 284.378,86.95 286.925,86.442 C286.971,86.425 287.024,86.387 287.07,86.378 Z M254.423,123.281 L253.478,123.596 C253.95,124.229 254.265,124.705 254.58,124.859 C254.916,125.057 255.296,125.165 255.686,125.174 C255.843,125.174 256.155,125.174 256.313,125.017 L258.681,124.229 C258.839,124.229 258.996,124.072 259.154,124.072 C259.469,124.072 259.626,124.072 259.941,124.229 L260.732,125.017 L261.519,124.859 C261.204,124.387 260.732,123.917 260.417,123.76 C260.102,123.602 259.784,123.439 259.311,123.439 L258.996,123.439 L256.47,124.387 L256.001,124.387 C255.683,124.387 255.371,124.387 255.213,124.229 C255.056,124.072 254.738,123.757 254.423,123.281 Z M246.851,124.859 C246.063,125.332 244.958,126.122 243.38,126.752 C241.805,127.382 240.542,128.015 239.909,128.645 C239.282,129.275 238.967,129.905 238.967,130.538 C238.967,130.853 239.124,131.014 239.439,131.171 C239.597,131.329 239.915,131.329 240.072,131.486 C242.272,132.44 244.429,133.492 246.536,134.636 C246.854,134.794 247.169,135.112 247.329,135.269 C247.487,135.427 247.641,135.427 247.799,135.427 C248.117,135.427 248.586,135.272 248.901,134.954 C249.216,134.639 249.377,134.321 249.377,134.006 C249.377,133.691 249.216,133.537 248.901,133.379 C248.901,133.379 247.638,132.746 245.43,131.801 C244.244,131.287 243.087,130.708 241.965,130.066 C242.438,129.278 243.383,128.645 244.803,128.015 C246.378,127.385 247.487,126.752 247.956,126.28 C248.114,126.122 248.114,125.965 248.114,125.807 C248.075,125.569 247.965,125.349 247.799,125.174 C247.583,124.978 247.303,124.866 247.011,124.859 Z M279.656,124.859 C279.419,124.898 279.199,125.008 279.026,125.174 C278.868,125.489 278.708,125.65 278.708,125.807 L278.708,125.965 C279.18,126.437 279.816,126.752 280.761,127.067 C281.549,127.225 282.336,127.543 283.127,127.7 C284.072,128.015 284.702,128.488 285.02,129.118 L285.02,129.278 C285.02,129.436 284.702,129.751 284.072,130.066 C283.757,130.223 283.124,130.699 282.336,131.329 C281.549,131.801 281.073,132.271 280.601,132.428 C279.971,132.746 279.498,133.061 279.341,133.379 C279.183,133.537 279.183,133.691 279.183,133.849 C279.183,134.164 279.341,134.164 279.498,134.479 C279.656,134.794 279.971,134.8 280.128,134.8 C280.286,134.8 280.443,134.636 280.601,134.636 C281.389,134.164 282.497,133.534 283.757,132.428 C285.174,131.326 286.28,130.538 286.913,130.066 C287.543,129.751 287.855,129.433 287.855,128.957 C287.855,128.803 287.855,128.488 287.54,128.33 C286.437,127.067 284.862,126.283 282.969,125.65 C282.654,125.492 282.182,125.332 281.234,125.174 C280.761,125.017 280.286,124.859 279.971,124.859 Z M270.981,127.222 C270.194,127.222 269.561,127.385 269.088,127.858 C268.458,128.33 268.301,129.118 268.458,130.066 C268.458,130.853 268.773,131.483 269.246,132.116 C269.718,132.746 270.351,133.064 270.981,133.064 C271.454,133.064 271.769,132.901 272.244,132.743 C273.032,132.271 273.35,131.483 273.35,130.066 C273.35,128.96 273.032,128.173 272.559,127.703 C272.097,127.381 271.545,127.214 270.981,127.225 Z M257.891,127.382 C257.103,127.382 256.473,127.543 256.001,128.015 C255.368,128.488 255.213,129.275 255.371,130.223 C255.371,131.011 255.683,131.641 256.158,132.271 C256.634,132.901 257.261,133.222 257.891,133.222 C258.366,133.222 258.681,133.058 259.154,132.901 C259.941,132.428 260.256,131.641 260.256,130.223 C260.256,128.96 259.941,128.173 259.469,127.861 C259.007,127.539 258.456,127.372 257.894,127.382 Z M257.891,129.278 C258.366,129.278 258.681,129.593 258.681,130.066 C258.681,130.538 258.206,130.853 257.894,130.853 C257.418,130.853 257.106,130.538 257.106,130.066 C257.106,129.593 257.418,129.278 257.894,129.278 Z M270.666,129.436 C271.139,129.436 271.457,129.748 271.457,130.223 C271.457,130.538 271.139,131.011 270.669,131.011 C270.194,131.011 269.882,130.696 269.882,130.223 C269.882,129.748 270.194,129.436 270.669,129.436 Z M262.782,135.584 L263.255,136.529 C263.414,136.829 263.628,137.097 263.885,137.32 C264.042,137.477 264.36,137.792 264.672,137.792 L264.99,137.792 C265.305,137.792 265.46,137.792 265.617,137.635 C265.775,137.477 266.096,137.477 266.253,137.32 L266.723,136.847 C266.88,136.69 267.038,136.529 267.038,136.372 C267.195,136.214 267.195,136.057 267.353,135.899 C267.353,135.742 267.51,135.584 267.51,135.584 C267.353,135.899 267.038,136.214 266.88,136.529 C266.565,136.687 266.411,137.005 266.093,137.005 C265.781,137.162 265.463,137.162 265.148,137.162 C264.833,137.162 264.518,137.162 264.36,137.005 C264.045,137.005 263.885,136.847 263.727,136.69 L263.255,136.214 C263.097,136.057 262.94,135.742 262.782,135.584 Z M260.256,138.583 C256.943,138.583 254.895,142.999 250.164,139.055 C248.904,146.785 258.209,147.415 262.152,144.101 C264.836,141.739 264.042,138.425 260.256,138.583 Z M268.616,138.583 C264.833,138.425 264.042,141.739 266.726,144.104 C270.666,147.415 279.968,146.782 278.708,139.055 C273.977,142.999 272.087,138.583 268.616,138.583 Z" />
        </g>
        <g id="Regular-S">
            <path d="M462.832,76.012 C461.753,76.041 460.688,76.128 459.623,76.289 C458.048,76.446 456.473,77.237 454.738,78.024 C452.53,78.969 450.319,79.917 448.268,80.075 C444.797,81.177 443.695,82.755 442.75,84.015 C442.75,84.173 442.592,84.33 442.592,84.33 C441.329,86.853 441.172,89.376 441.644,91.899 C442.117,93.477 442.747,94.901 443.219,96.318 C444.328,99.317 445.43,102.152 445.903,105.465 C446.378,106.413 446.848,107.673 447.163,108.936 C447.95,111.459 448.744,114.298 451.109,116.506 L451.127,116.497 C451.176,116.552 451.214,116.613 451.267,116.663 L451.328,116.634 L451.27,114.93 C453.16,112.089 455.837,110.196 459.623,109.409 C461.14,109.088 462.776,108.971 464.474,109.036 C466.241,109.083 467.999,109.314 469.718,109.724 C473.977,110.827 477.287,113.037 477.448,114.93 C477.527,115.963 477.565,116.958 477.541,117.952 C477.541,118.139 477.53,118.326 477.521,118.515 L477.918,118.714 C478.156,118.576 478.362,118.386 478.518,118.159 L478.527,118.151 L478.545,118.127 C478.661,117.97 478.763,117.766 478.865,117.561 C478.924,117.453 478.976,117.311 479.029,117.185 C479.627,115.838 480.085,113.822 480.598,111.459 C480.756,110.672 480.919,110.039 481.073,109.409 C482.336,106.571 484.069,104.048 485.805,101.679 C488.643,97.742 491.323,94.11 491.008,89.852 C485.805,79.757 478.548,78.179 474.762,77.391 C474.132,77.234 473.819,77.234 473.347,77.076 C469.444,76.365 466.072,75.921 462.832,76.012 Z M477.541,117.952 C477.558,116.995 477.527,116.039 477.448,115.085 C477.29,113.034 473.977,110.826 469.561,109.724 C467.89,109.338 466.187,109.108 464.474,109.036 C462.953,108.985 461.431,109.11 459.938,109.409 C456.31,110.196 453.475,112.092 451.739,114.927 L451.888,119.101 C453.834,118.066 456.943,116.552 461.047,116.185 C461.236,116.17 461.443,116.17 461.642,116.158 C461.983,116.12 462.418,116.03 462.937,116.03 C467.624,116.03 472.469,117.588 477.162,120.837 C477.276,120.038 477.337,119.236 477.366,118.436 L477.498,118.503 C477.503,118.32 477.538,118.133 477.541,117.949 Z M462.829,76.169 C463.191,76.157 463.57,76.198 463.934,76.201 C463.264,76.195 462.596,76.21 461.931,76.248 C462.231,76.23 462.529,76.178 462.829,76.169 Z M464.281,76.213 Z M460.449,76.379 C460.227,76.405 460.003,76.417 459.781,76.449 C457.398,76.79 454.607,78.494 451.76,79.497 C452.795,79.112 453.842,78.634 454.895,78.185 C456.47,77.397 458.206,76.607 459.623,76.449 C459.898,76.408 460.175,76.411 460.449,76.379 Z M459.781,77.079 C460.253,77.079 460.886,77.079 461.359,77.237 C461.005,77.156 460.639,77.142 460.28,77.196 C460.595,77.219 460.905,77.286 461.201,77.394 C462.893,80.311 459.959,92.792 459.221,101.163 C459.607,103.818 460.058,106.463 460.571,109.096 C458.521,103.892 456.47,94.742 456.152,87.646 C455.995,84.808 456.155,82.282 456.788,80.392 C457.415,78.494 458.363,77.234 459.778,77.076 Z M468.928,77.867 C466.565,84.021 466.25,95.688 466.093,99.317 C465.935,100.892 466.093,104.363 466.25,106.886 C466.25,107.516 466.408,108.146 466.408,108.779 C466.408,108.146 466.25,107.673 466.25,107.043 C464.987,97.581 463.409,86.229 468.928,77.87 Z M478.705,78.972 C477.918,85.278 474.607,88.277 473.504,94.431 C473.189,99.32 472.556,104.996 472.399,109.884 C472.241,104.996 472.399,99.792 473.186,94.586 C473.974,89.225 475.71,83.861 478.705,78.972 Z M448.432,80.229 Z M449.044,80.804 C449.695,80.797 450.323,81.044 450.794,81.492 L450.753,81.472 C451.141,81.74 451.529,82.082 451.9,82.592 C451.305,85.415 452.643,91.436 452.016,96.213 C452.238,100.729 452.223,105.489 454.493,109.219 C451.634,104.815 451.063,99.191 450.637,93.947 C450.307,90.768 450.042,87.831 449.283,85.48 C448.863,84.59 448.499,83.802 448.163,83.082 C448.093,82.974 448.035,82.852 447.959,82.749 C447.673,82.452 447.505,82.062 447.487,81.65 C447.487,81.492 447.641,81.177 447.802,81.177 C447.959,81.02 448.271,81.014 448.429,80.856 C448.631,80.818 448.836,80.8 449.041,80.804 Z M445.115,82.592 C444.94,82.65 444.847,82.712 444.707,82.77 C445.223,82.671 445.763,82.869 446.224,83.697 C445.675,86.299 447.495,93.524 447.472,98.585 C448.385,103.975 449.076,109.814 452.057,113.504 C448.586,109.564 447.169,102.624 446.066,96.788 C445.118,92.214 444.328,88.271 442.753,87.011 C442.595,86.696 442.438,86.535 442.438,86.22 C442.438,85.748 442.438,85.115 442.753,84.485 C441.945,86.334 441.571,88.181 441.673,90.03 C441.554,88.12 441.926,86.211 442.753,84.485 C442.753,84.327 442.91,84.327 442.91,84.17 C442.945,84.123 443.001,84.068 443.038,84.021 C443.207,83.73 443.431,83.476 443.698,83.272 C443.858,83.094 443.978,82.922 444.161,82.741 C444.007,82.904 443.905,83.062 443.771,83.222 C443.849,83.169 443.922,83.114 444.016,83.07 C444.294,82.757 444.696,82.582 445.115,82.592 Z M444.016,83.07 C444.004,83.091 443.992,83.099 443.981,83.123 L444.089,83.035 L444.016,83.07 Z M487.068,86.378 L487.053,86.422 C487.164,86.407 487.272,86.372 487.383,86.378 C487.275,86.372 487.161,86.407 487.047,86.436 C484.53,94.142 481.543,101.849 478.556,109.555 C478.555,109.558 478.553,109.561 478.55,109.564 C478.297,110.92 477.868,112.142 476.975,113.035 C478.238,111.614 478.393,109.561 478.55,107.038 C478.708,104.672 478.708,102.149 479.971,99.623 C479.971,99.469 479.974,99.317 480.126,99.159 L480.128,99.154 C480.411,98.124 480.718,97.144 481.053,96.184 C482.272,92.422 484.378,86.95 486.925,86.442 C486.971,86.425 487.024,86.387 487.07,86.378 Z M454.423,123.281 L453.478,123.596 C453.95,124.229 454.265,124.705 454.58,124.859 C454.916,125.057 455.296,125.165 455.686,125.174 C455.843,125.174 456.155,125.174 456.313,125.017 L458.681,124.229 C458.839,124.229 458.996,124.072 459.154,124.072 C459.469,124.072 459.626,124.072 459.941,124.229 L460.732,125.017 L461.519,124.859 C461.204,124.387 460.732,123.917 460.417,123.76 C460.102,123.602 459.784,123.439 459.311,123.439 L458.996,123.439 L456.47,124.387 L456.001,124.387 C455.683,124.387 455.371,124.387 455.213,124.229 C455.056,124.072 454.738,123.757 454.423,123.281 Z M446.851,124.859 C446.063,125.332 444.958,126.122 443.38,126.752 C441.805,127.382 440.542,128.015 439.909,128.645 C439.282,129.275 438.967,129.905 438.967,130.538 C438.967,130.853 439.124,131.014 439.439,131.171 C439.597,131.329 439.915,131.329 440.072,131.486 C442.272,132.44 444.429,133.492 446.536,134.636 C446.854,134.794 447.169,135.112 447.329,135.269 C447.487,135.427 447.641,135.427 447.799,135.427 C448.117,135.427 448.586,135.272 448.901,134.954 C449.216,134.639 449.377,134.321 449.377,134.006 C449.377,133.691 449.216,133.537 448.901,133.379 C448.901,133.379 447.638,132.746 445.43,131.801 C444.244,131.287 443.087,130.708 441.965,130.066 C442.438,129.278 443.383,128.645 444.803,128.015 C446.378,127.385 447.487,126.752 447.956,126.28 C448.114,126.122 448.114,125.965 448.114,125.807 C448.075,125.569 447.965,125.349 447.799,125.174 C447.583,124.978 447.303,124.866 447.011,124.859 Z M479.656,124.859 C479.419,124.898 479.199,125.008 479.026,125.174 C478.868,125.489 478.708,125.65 478.708,125.807 L478.708,125.965 C479.18,126.437 479.816,126.752 480.761,127.067 C481.549,127.225 482.336,127.543 483.127,127.7 C484.072,128.015 484.702,128.488 485.02,129.118 L485.02,129.278 C485.02,129.436 484.702,129.751 484.072,130.066 C483.757,130.223 483.124,130.699 482.336,131.329 C481.549,131.801 481.073,132.271 480.601,132.428 C479.971,132.746 479.498,133.061 479.341,133.379 C479.183,133.537 479.183,133.691 479.183,133.849 C479.183,134.164 479.341,134.164 479.498,134.479 C479.656,134.794 479.971,134.8 480.128,134.8 C480.286,134.8 480.443,134.636 480.601,134.636 C481.389,134.164 482.497,133.534 483.757,132.428 C485.174,131.326 486.28,130.538 486.913,130.066 C487.543,129.751 487.855,129.433 487.855,128.957 C487.855,128.803 487.855,128.488 487.54,128.33 C486.437,127.067 484.862,126.283 482.969,125.65 C482.654,125.492 482.182,125.332 481.234,125.174 C480.761,125.017 480.286,124.859 479.971,124.859 Z M470.981,127.222 C470.194,127.222 469.561,127.385 469.088,127.858 C468.458,128.33 468.301,129.118 468.458,130.066 C468.458,130.853 468.773,131.483 469.246,132.116 C469.718,132.746 470.351,133.064 470.981,133.064 C471.454,133.064 471.769,132.901 472.244,132.743 C473.032,132.271 473.35,131.483 473.35,130.066 C473.35,128.96 473.032,128.173 472.559,127.703 C472.097,127.381 471.545,127.214 470.981,127.225 Z M457.891,127.382 C457.103,127.382 456.473,127.543 456.001,128.015 C455.368,128.488 455.213,129.275 455.371,130.223 C455.371,131.011 455.683,131.641 456.158,132.271 C456.634,132.901 457.261,133.222 457.891,133.222 C458.366,133.222 458.681,133.058 459.154,132.901 C459.941,132.428 460.256,131.641 460.256,130.223 C460.256,128.96 459.941,128.173 459.469,127.861 C459.007,127.539 458.456,127.372 457.894,127.382 Z M457.891,129.278 C458.366,129.278 458.681,129.593 458.681,130.066 C458.681,130.538 458.206,130.853 457.894,130.853 C457.418,130.853 457.106,130.538 457.106,130.066 C457.106,129.593 457.418,129.278 457.894,129.278 Z M470.666,129.436 C471.139,129.436 471.457,129.748 471.457,130.223 C471.457,130.538 471.139,131.011 470.669,131.011 C470.194,131.011 469.882,130.696 469.882,130.223 C469.882,129.748 470.194,129.436 470.669,129.436 Z M462.782,135.584 L463.255,136.529 C463.414,136.829 463.628,137.097 463.885,137.32 C464.042,137.477 464.36,137.792 464.672,137.792 L464.99,137.792 C465.305,137.792 465.46,137.792 465.617,137.635 C465.775,137.477 466.096,137.477 466.253,137.32 L466.723,136.847 C466.88,136.69 467.038,136.529 467.038,136.372 C467.195,136.214 467.195,136.057 467.353,135.899 C467.353,135.742 467.51,135.584 467.51,135.584 C467.353,135.899 467.038,136.214 466.88,136.529 C466.565,136.687 466.411,137.005 466.093,137.005 C465.781,137.162 465.463,137.162 465.148,137.162 C464.833,137.162 464.518,137.162 464.36,137.005 C464.045,137.005 463.885,136.847 463.727,136.69 L463.255,136.214 C463.097,136.057 462.94,135.742 462.782,135.584 Z M460.256,138.583 C456.943,138.583 454.895,142.999 450.164,139.055 C448.904,146.785 458.209,147.415 462.152,144.101 C464.836,141.739 464.042,138.425 460.256,138.583 Z M468.616,138.583 C464.833,138.425 464.042,141.739 466.726,144.104 C470.666,147.415 479.968,146.782 478.708,139.055 C473.977,142.999 472.087,138.583 468.616,138.583 Z" />
        </g>
        <g id="Black-S">
            <path d="M662.832,76.012 C661.753,76.041 660.688,76.128 659.623,76.289 C658.048,76.446 656.473,77.237 654.738,78.024 C652.53,78.969 650.319,79.917 648.268,80.075 C644.797,81.177 643.695,82.755 642.75,84.015 C642.75,84.173 642.592,84.33 642.592,84.33 C641.329,86.853 641.172,89.376 641.644,91.899 C642.117,93.477 642.747,94.901 643.219,96.318 C644.328,99.317 645.43,102.152 645.903,105.465 C646.378,106.413 646.848,107.673 647.163,108.936 C647.95,111.459 648.744,114.298 651.109,116.506 L651.127,116.497 C651.176,116.552 651.214,116.613 651.267,116.663 L651.328,116.634 L651.27,114.93 C653.16,112.089 655.837,110.196 659.623,109.409 C661.14,109.088 662.776,108.971 664.474,109.036 C666.241,109.083 667.999,109.314 669.718,109.724 C673.977,110.827 677.287,113.037 677.448,114.93 C677.527,115.963 677.565,116.958 677.541,117.952 C677.541,118.139 677.53,118.326 677.521,118.515 L677.917,118.714 C678.156,118.576 678.362,118.386 678.518,118.159 L678.527,118.151 L678.545,118.127 C678.661,117.97 678.763,117.766 678.865,117.561 C678.924,117.453 678.976,117.311 679.029,117.185 C679.627,115.838 680.085,113.822 680.598,111.459 C680.756,110.672 680.919,110.039 681.073,109.409 C682.336,106.571 684.069,104.048 685.805,101.679 C688.643,97.742 691.323,94.11 691.008,89.852 C685.805,79.757 678.548,78.179 674.762,77.391 C674.132,77.234 673.819,77.234 673.347,77.076 C669.444,76.365 666.072,75.921 662.832,76.012 Z M677.541,117.952 C677.558,116.995 677.527,116.039 677.448,115.085 C677.29,113.034 673.977,110.826 669.561,109.724 C667.89,109.338 666.187,109.108 664.474,109.036 C662.953,108.985 661.431,109.11 659.938,109.409 C656.31,110.196 653.475,112.092 651.739,114.927 L651.888,119.101 C653.834,118.066 656.943,116.552 661.047,116.185 C661.236,116.17 661.443,116.17 661.642,116.158 C661.983,116.12 662.418,116.03 662.937,116.03 C667.624,116.03 672.469,117.588 677.162,120.837 C677.276,120.038 677.337,119.236 677.366,118.436 L677.497,118.503 C677.503,118.32 677.538,118.133 677.541,117.949 Z M662.829,76.169 C663.191,76.157 663.57,76.198 663.934,76.201 C663.264,76.195 662.596,76.21 661.931,76.248 C662.231,76.23 662.529,76.178 662.829,76.169 Z M664.281,76.213 Z M660.449,76.379 C660.227,76.405 660.003,76.417 659.781,76.449 C657.398,76.79 654.607,78.494 651.76,79.497 C652.795,79.112 653.842,78.634 654.895,78.185 C656.47,77.397 658.206,76.607 659.623,76.449 C659.898,76.408 660.175,76.411 660.449,76.379 Z M659.781,77.079 C660.253,77.079 660.886,77.079 661.359,77.237 C661.005,77.156 660.639,77.142 660.28,77.196 C660.595,77.219 660.905,77.286 661.201,77.394 C662.893,80.311 659.959,92.792 659.221,101.163 C659.607,103.818 660.058,106.463 660.571,109.096 C658.521,103.892 656.47,94.742 656.152,87.646 C655.995,84.808 656.155,82.282 656.788,80.392 C657.415,78.494 658.363,77.234 659.778,77.076 Z M668.928,77.867 C666.565,84.021 666.25,95.688 666.093,99.317 C665.935,100.892 666.093,104.363 666.25,106.886 C666.25,107.516 666.408,108.146 666.408,108.779 C666.408,108.146 666.25,107.673 666.25,107.043 C664.987,97.581 663.409,86.229 668.928,77.87 Z M678.705,78.972 C677.917,85.278 674.607,88.277 673.504,94.431 C673.189,99.32 672.556,104.996 672.399,109.884 C672.241,104.996 672.399,99.792 673.186,94.586 C673.974,89.225 675.709,83.861 678.705,78.972 Z M648.432,80.229 Z M649.044,80.804 C649.695,80.797 650.323,81.044 650.794,81.492 L650.753,81.472 C651.141,81.74 651.529,82.082 651.9,82.592 C651.305,85.415 652.643,91.436 652.016,96.213 C652.238,100.729 652.223,105.489 654.493,109.219 C651.634,104.815 651.063,99.191 650.637,93.947 C650.307,90.768 650.042,87.831 649.283,85.48 C648.863,84.59 648.499,83.802 648.163,83.082 C648.093,82.974 648.035,82.852 647.959,82.749 C647.673,82.452 647.505,82.062 647.487,81.65 C647.487,81.492 647.641,81.177 647.802,81.177 C647.959,81.02 648.271,81.014 648.429,80.856 C648.63,80.818 648.836,80.8 649.041,80.804 Z M645.115,82.592 C644.94,82.65 644.847,82.712 644.707,82.77 C645.223,82.671 645.763,82.869 646.224,83.697 C645.675,86.299 647.495,93.524 647.472,98.585 C648.385,103.975 649.076,109.814 652.057,113.504 C648.586,109.564 647.169,102.624 646.066,96.788 C645.118,92.214 644.328,88.271 642.753,87.011 C642.595,86.696 642.438,86.535 642.438,86.22 C642.438,85.748 642.438,85.115 642.753,84.485 C641.945,86.334 641.571,88.181 641.673,90.03 C641.554,88.12 641.926,86.211 642.753,84.485 C642.753,84.327 642.91,84.327 642.91,84.17 C642.945,84.123 643.001,84.068 643.039,84.021 C643.207,83.73 643.431,83.476 643.698,83.272 C643.858,83.094 643.978,82.922 644.161,82.741 C644.007,82.904 643.905,83.062 643.771,83.222 C643.849,83.169 643.922,83.114 644.016,83.07 C644.294,82.757 644.696,82.582 645.115,82.592 Z M644.016,83.07 C644.004,83.091 643.992,83.099 643.981,83.123 L644.089,83.035 L644.016,83.07 Z M687.068,86.378 L687.053,86.422 C687.164,86.407 687.272,86.372 687.383,86.378 C687.275,86.372 687.161,86.407 687.047,86.436 C684.53,94.142 681.543,101.849 678.556,109.555 C678.555,109.558 678.553,109.561 678.55,109.564 C678.297,110.92 677.868,112.142 676.975,113.035 C678.238,111.614 678.393,109.561 678.55,107.038 C678.708,104.672 678.708,102.149 679.971,99.623 C679.971,99.469 679.974,99.317 680.126,99.159 L680.128,99.154 C680.411,98.124 680.718,97.144 681.053,96.184 C682.272,92.422 684.378,86.95 686.925,86.442 C686.971,86.425 687.024,86.387 687.07,86.378 Z M654.423,123.281 L653.478,123.596 C653.95,124.229 654.265,124.705 654.58,124.859 C654.916,125.057 655.296,125.165 655.686,125.174 C655.843,125.174 656.155,125.174 656.313,125.017 L658.681,124.229 C658.839,124.229 658.996,124.072 659.154,124.072 C659.469,124.072 659.626,124.072 659.941,124.229 L660.732,125.017 L661.519,124.859 C661.204,124.387 660.732,123.917 660.417,123.76 C660.102,123.602 659.784,123.439 659.311,123.439 L658.996,123.439 L656.47,124.387 L656.001,124.387 C655.683,124.387 655.371,124.387 655.213,124.229 C655.056,124.072 654.738,123.757 654.423,123.281 Z M646.851,124.859 C646.063,125.332 644.958,126.122 643.38,126.752 C641.805,127.382 640.542,128.015 639.909,128.645 C639.282,129.275 638.967,129.905 638.967,130.538 C638.967,130.853 639.124,131.014 639.439,131.171 C639.597,131.329 639.915,131.329 640.072,131.486 C642.272,132.44 644.429,133.492 646.536,134.636 C646.854,134.794 647.169,135.112 647.329,135.269 C647.487,135.427 647.641,135.427 647.799,135.427 C648.117,135.427 648.586,135.272 648.901,134.954 C649.216,134.639 649.377,134.321 649.377,134.006 C649.377,133.691 649.216,133.537 648.901,133.379 C648.901,133.379 647.638,132.746 645.43,131.801 C644.244,131.287 643.087,130.708 641.965,130.066 C642.438,129.278 643.383,128.645 644.803,128.015 C646.378,127.385 647.487,126.752 647.956,126.28 C648.114,126.122 648.114,125.965 648.114,125.807 C648.075,125.569 647.965,125.349 647.799,125.174 C647.583,124.978 647.303,124.866 647.011,124.859 Z M679.656,124.859 C679.419,124.898 679.199,125.008 679.026,125.174 C678.868,125.489 678.708,125.65 678.708,125.807 L678.708,125.965 C679.18,126.437 679.816,126.752 680.761,127.067 C681.549,127.225 682.336,127.543 683.127,127.7 C684.072,128.015 684.702,128.488 685.02,129.118 L685.02,129.278 C685.02,129.436 684.702,129.751 684.072,130.066 C683.757,130.223 683.124,130.699 682.336,131.329 C681.549,131.801 681.073,132.271 680.601,132.428 C679.971,132.746 679.498,133.061 679.341,133.379 C679.183,133.537 679.183,133.691 679.183,133.849 C679.183,134.164 679.341,134.164 679.498,134.479 C679.656,134.794 679.971,134.8 680.128,134.8 C680.286,134.8 680.443,134.636 680.601,134.636 C681.388,134.164 682.497,133.534 683.757,132.428 C685.174,131.326 686.28,130.538 686.913,130.066 C687.543,129.751 687.855,129.433 687.855,128.957 C687.855,128.803 687.855,128.488 687.54,128.33 C686.438,127.067 684.862,126.283 682.969,125.65 C682.654,125.492 682.182,125.332 681.234,125.174 C680.761,125.017 680.286,124.859 679.971,124.859 Z M670.981,127.222 C670.194,127.222 669.561,127.385 669.088,127.858 C668.458,128.33 668.301,129.118 668.458,130.066 C668.458,130.853 668.773,131.483 669.246,132.116 C669.718,132.746 670.351,133.064 670.981,133.064 C671.454,133.064 671.769,132.901 672.244,132.743 C673.032,132.271 673.35,131.483 673.35,130.066 C673.35,128.96 673.032,128.173 672.559,127.703 C672.097,127.381 671.545,127.214 670.981,127.225 Z M657.891,127.382 C657.103,127.382 656.473,127.543 656.001,128.015 C655.368,128.488 655.213,129.275 655.371,130.223 C655.371,131.011 655.683,131.641 656.158,132.271 C656.634,132.901 657.261,133.222 657.891,133.222 C658.366,133.222 658.681,133.058 659.154,132.901 C659.941,132.428 660.256,131.641 660.256,130.223 C660.256,128.96 659.941,128.173 659.469,127.861 C659.007,127.539 658.456,127.372 657.894,127.382 Z M657.891,129.278 C658.366,129.278 658.681,129.593 658.681,130.066 C658.681,130.538 658.206,130.853 657.894,130.853 C657.418,130.853 657.106,130.538 657.106,130.066 C657.106,129.593 657.418,129.278 657.894,129.278 Z M670.666,129.436 C671.139,129.436 671.457,129.748 671.457,130.223 C671.457,130.538 671.139,131.011 670.669,131.011 C670.194,131.011 669.882,130.696 669.882,130.223 C669.882,129.748 670.194,129.436 670.669,129.436 Z M662.782,135.584 L663.255,136.529 C663.414,136.829 663.628,137.097 663.885,137.32 C664.042,137.477 664.36,137.792 664.672,137.792 L664.99,137.792 C665.305,137.792 665.46,137.792 665.617,137.635 C665.775,137.477 666.096,137.477 666.253,137.32 L666.723,136.847 C666.88,136.69 667.038,136.529 667.038,136.372 C667.195,136.214 667.195,136.057 667.353,135.899 C667.353,135.742 667.51,135.584 667.51,135.584 C667.353,135.899 667.038,136.214 666.88,136.529 C666.565,136.687 666.411,137.005 666.093,137.005 C665.781,137.162 665.463,137.162 665.148,137.162 C664.833,137.162 664.518,137.162 664.36,137.005 C664.045,137.005 663.885,136.847 663.727,136.69 L663.255,136.214 C663.097,136.057 662.94,135.742 662.782,135.584 Z M660.256,138.583 C656.943,138.583 654.895,142.999 650.164,139.055 C648.904,146.785 658.209,147.415 662.152,144.101 C664.836,141.739 664.042,138.425 660.256,138.583 Z M668.616,138.583 C664.833,138.425 664.042,141.739 666.726,144.104 C670.666,147.415 679.968,146.782 678.708,139.055 C673.977,142.999 672.087,138.583 668.616,138.583 Z" />
        </g>
    </g>
</svg>